Coordinates
version=1
nRows=13
nColumns=27
inDegrees=yes

Units are S.I. units (second, meters, Newtons, ...)
If the header above contains a line with 'inDegrees', this indicates whether rotational values are in degrees (yes) or radians (no).

endheader
time	pelvis_rotation	pelvis_tilt	pelvis_list	pelvis_tx	pelvis_ty	pelvis_tz	hip_flexion_r	hip_adduction_r	hip_rotation_r	knee_angle_r	knee_rotation_r	knee_adduction_r	knee_angle_r_beta	ankle_angle_r	subtalar_angle_r	mtp_angle_r	hip_flexion_l	hip_adduction_l	hip_rotation_l	knee_angle_l	knee_rotation_l	knee_adduction_l	knee_angle_l_beta	ankle_angle_l	subtalar_angle_l	mtp_angle_l
      3.27500000	     13.38450193	    -44.07524852	     10.55357564	     -0.06307732	      0.54859102	     -1.18265979	    130.90210202	    -49.23457113	     16.14639965	     93.06647232	      0.00000000	      9.79948138	      1.62431637	     13.16436952	      0.00000000	      0.00000000	    120.47660866	    -26.99966115	      3.57877495	     89.84691290	      0.00000000	     -9.93895706	      1.56812445	      7.78113388	      0.00000000	      0.00000000
      3.28000000	     13.36921089	    -44.05172458	     10.53537590	     -0.06293799	      0.54701524	     -1.18268958	    131.18044663	    -49.23205363	     16.38957010	     93.30690183	      0.00000000	      9.80033178	      1.62851265	     13.22459691	      0.00000000	      0.00000000	    120.70064332	    -27.02266229	      3.74085462	     90.11828740	      0.00000000	     -9.93914511	      1.57286083	      7.84447781	      0.00000000	      0.00000000
      3.28500000	     13.34202176	    -43.99737452	     10.49465850	     -0.06276043	      0.54545473	     -1.18272031	    131.40891420	    -49.24115736	     16.60910437	     93.54977579	      0.00000000	      9.80117486	      1.63275160	     13.28238293	      0.00000000	      0.00000000	    120.89139269	    -27.03441473	      3.92194752	     90.38724405	      0.00000000	     -9.93935861	      1.57755501	      7.93689245	      0.00000000	      0.00000000
      3.29000000	     13.34833970	    -43.98830293	     10.50188171	     -0.06266812	      0.54386141	     -1.18278491	    131.72619552	    -49.23035626	     16.88777495	     93.78956736	      0.00000000	      9.80195583	      1.63693675	     13.36710248	      0.00000000	      0.00000000	    121.12541840	    -27.03602584	      4.07587685	     90.65715469	      0.00000000	     -9.93955565	      1.58226584	      8.00551060	      0.00000000	      0.00000000
      3.29500000	     13.30606684	    -43.90018326	     10.45006775	     -0.06243583	      0.54230813	     -1.18282009	    131.90299646	    -49.24431488	     17.09331882	     94.02549291	      0.00000000	      9.80279814	      1.64105443	     13.43999108	      0.00000000	      0.00000000	    121.28153861	    -27.05318295	      4.25909271	     90.92888132	      0.00000000	     -9.93972728	      1.58700836	      8.08162221	      0.00000000	      0.00000000
      3.30000000	     13.29294054	    -43.84123656	     10.42427340	     -0.06225887	      0.54068221	     -1.18284314	    132.15513171	    -49.25273387	     17.34197176	     94.28001577	      0.00000000	      9.80352189	      1.64549669	     13.52961507	      0.00000000	      0.00000000	    121.48012218	    -27.05833066	      4.44079347	     91.20546071	      0.00000000	     -9.93993880	      1.59183559	      8.13903913	      0.00000000	      0.00000000
      3.30500000	     13.26064126	    -43.76224953	     10.38447338	     -0.06204419	      0.53907429	     -1.18290645	    132.36209639	    -49.26262655	     17.57225062	     94.51638905	      0.00000000	      9.80433688	      1.64962219	     13.61285686	      0.00000000	      0.00000000	    121.64971014	    -27.06183193	      4.62655653	     91.48559429	      0.00000000	     -9.94012433	      1.59672484	      8.22907932	      0.00000000	      0.00000000
      3.31000000	     13.30743654	    -43.78166840	     10.44544559	     -0.06201332	      0.53746301	     -1.18304301	    132.77131414	    -49.24473658	     17.91741591	     94.75648097	      0.00000000	      9.80509231	      1.65381258	     13.64257793	      0.00000000	      0.00000000	    121.90337325	    -27.03477254	      4.74444065	     91.75358739	      0.00000000	     -9.94035677	      1.60140220	      8.26454838	      0.00000000	      0.00000000
      3.31500000	     13.26939809	    -43.70364997	     10.42297841	     -0.06179230	      0.53581712	     -1.18309195	    133.00285621	    -49.23009644	     18.17134833	     94.99448848	      0.00000000	      9.80589561	      1.65796660	     13.72345567	      0.00000000	      0.00000000	    122.06870947	    -27.05766971	      4.92038708	     92.03500669	      0.00000000	     -9.94047312	      1.60631389	      8.37371452	      0.00000000	      0.00000000
      3.32000000	     13.24528488	    -43.61422768	     10.41836699	     -0.06154836	      0.53416089	     -1.18318791	    133.25617318	    -49.22572869	     18.46171601	     95.24627350	      0.00000000	      9.80678957	      1.66236107	     13.78689429	      0.00000000	      0.00000000	    122.21798517	    -27.07190711	      5.07201093	     92.32136464	      0.00000000	     -9.94063547	      1.61131178	      8.43636160	      0.00000000	      0.00000000
      3.32500000	     13.22967194	    -43.54992399	     10.40177012	     -0.06136948	      0.53250925	     -1.18324621	    133.51513859	    -49.22371004	     18.72399798	     95.49240753	      0.00000000	      9.80774148	      1.66665692	     13.87963045	      0.00000000	      0.00000000	    122.40496971	    -27.07044445	      5.24758871	     92.59854813	      0.00000000	     -9.94085235	      1.61614955	      8.50849782	      0.00000000	      0.00000000
      3.33000000	     13.20007281	    -43.48215920	     10.37588395	     -0.06112812	      0.53084404	     -1.18335883	    133.75895825	    -49.21992763	     18.98912902	     95.73605761	      0.00000000	      9.80853647	      1.67090942	     13.93863054	      0.00000000	      0.00000000	    122.58968208	    -27.07304799	      5.42905581	     92.88908313	      0.00000000	     -9.94101192	      1.62122034	      8.58630732	      0.00000000	      0.00000000
      3.33500000	     13.25148313	    -43.42811107	     10.43890693	     -0.06093514	      0.52917509	     -1.18352170	    134.11303326	    -49.23166141	     19.36474059	     95.98801135	      0.00000000	      9.80943873	      1.67530684	     14.02240955	      0.00000000	      0.00000000	    122.76963732	    -27.04842753	      5.52924779	     93.17053182	      0.00000000	     -9.94127433	      1.62613255	      8.63111720	      0.00000000	      0.00000000
